G75*
%MOIN*%
%OFA0B0*%
%FSLAX25Y25*%
%IPPOS*%
%LPD*%
%AMOC8*
5,1,8,0,0,1.08239X$1,22.5*
%
%ADD10C,0.00400*%
%ADD11C,0.00500*%
%ADD12C,0.01000*%
%ADD13C,0.00200*%
%ADD14C,0.00100*%
%ADD15C,0.00800*%
%ADD16R,0.02953X0.01969*%
%ADD17R,0.01969X0.02953*%
D10*
X0051405Y0067472D02*
X0056009Y0070541D01*
X0056009Y0072076D02*
X0052939Y0075145D01*
X0052172Y0075145D01*
X0051405Y0074378D01*
X0051405Y0072843D01*
X0052172Y0072076D01*
X0051405Y0070541D02*
X0056009Y0067472D01*
X0056009Y0072076D02*
X0056009Y0075145D01*
X0086463Y0149524D02*
X0089533Y0149524D01*
X0090300Y0150291D01*
X0090300Y0151826D01*
X0089533Y0152593D01*
X0089533Y0154128D02*
X0090300Y0154895D01*
X0090300Y0156430D01*
X0089533Y0157197D01*
X0087998Y0157197D01*
X0087231Y0156430D01*
X0087231Y0155662D01*
X0087998Y0154128D01*
X0085696Y0154128D01*
X0085696Y0157197D01*
X0086463Y0152593D02*
X0085696Y0151826D01*
X0085696Y0150291D01*
X0086463Y0149524D01*
X0089240Y0169297D02*
X0089240Y0187097D01*
X0094720Y0186802D02*
X0097022Y0186802D01*
X0097790Y0187569D01*
X0097790Y0189104D01*
X0097022Y0189871D01*
X0094720Y0189871D01*
X0094720Y0185267D01*
X0096255Y0186802D02*
X0097790Y0185267D01*
X0099324Y0185267D02*
X0099324Y0186034D01*
X0102394Y0189104D01*
X0102394Y0189871D01*
X0099324Y0189871D01*
X0116877Y0195547D02*
X0116877Y0197849D01*
X0117645Y0198617D01*
X0119179Y0198617D01*
X0119946Y0197849D01*
X0119946Y0195547D01*
X0119946Y0197082D02*
X0121481Y0198617D01*
X0120714Y0200151D02*
X0121481Y0200918D01*
X0121481Y0202453D01*
X0120714Y0203220D01*
X0119946Y0203220D01*
X0119179Y0202453D01*
X0119179Y0200151D01*
X0120714Y0200151D01*
X0119179Y0200151D02*
X0117645Y0201686D01*
X0116877Y0203220D01*
X0116877Y0195547D02*
X0121481Y0195547D01*
X0125306Y0201901D02*
X0126841Y0201901D01*
X0127608Y0202668D01*
X0129143Y0202668D02*
X0129910Y0201901D01*
X0131444Y0201901D01*
X0132212Y0202668D01*
X0132212Y0203435D01*
X0131444Y0204203D01*
X0129143Y0204203D01*
X0129143Y0202668D01*
X0129143Y0204203D02*
X0130677Y0205737D01*
X0132212Y0206505D01*
X0127608Y0205737D02*
X0126841Y0206505D01*
X0125306Y0206505D01*
X0124539Y0205737D01*
X0124539Y0202668D01*
X0125306Y0201901D01*
X0123630Y0215582D02*
X0122095Y0215582D01*
X0121328Y0216349D01*
X0121328Y0217884D02*
X0122862Y0218651D01*
X0123630Y0218651D01*
X0124397Y0217884D01*
X0124397Y0216349D01*
X0123630Y0215582D01*
X0121328Y0217884D02*
X0121328Y0220186D01*
X0124397Y0220186D01*
X0119793Y0219418D02*
X0119793Y0217884D01*
X0119026Y0217117D01*
X0116724Y0217117D01*
X0118258Y0217117D02*
X0119793Y0215582D01*
X0116724Y0215582D02*
X0116724Y0220186D01*
X0119026Y0220186D01*
X0119793Y0219418D01*
X0156044Y0218239D02*
X0158346Y0218239D01*
X0159113Y0219006D01*
X0159113Y0220541D01*
X0158346Y0221308D01*
X0156044Y0221308D01*
X0156044Y0216704D01*
X0160648Y0216704D02*
X0160648Y0219773D01*
X0162183Y0221308D01*
X0163717Y0219773D01*
X0163717Y0216704D01*
X0165252Y0216704D02*
X0167554Y0216704D01*
X0168321Y0217471D01*
X0168321Y0220541D01*
X0167554Y0221308D01*
X0165252Y0221308D01*
X0165252Y0216704D01*
X0163717Y0219006D02*
X0160648Y0219006D01*
X0169856Y0219773D02*
X0171391Y0221308D01*
X0171391Y0216704D01*
X0172925Y0216704D02*
X0169856Y0216704D01*
X0170623Y0209497D02*
X0169856Y0208730D01*
X0170623Y0209497D02*
X0172158Y0209497D01*
X0172925Y0208730D01*
X0172925Y0207962D01*
X0169856Y0204893D01*
X0172925Y0204893D01*
X0168321Y0205660D02*
X0168321Y0208730D01*
X0167554Y0209497D01*
X0165252Y0209497D01*
X0165252Y0204893D01*
X0167554Y0204893D01*
X0168321Y0205660D01*
X0163717Y0204893D02*
X0163717Y0207962D01*
X0162183Y0209497D01*
X0160648Y0207962D01*
X0160648Y0204893D01*
X0160648Y0207195D02*
X0163717Y0207195D01*
X0159113Y0207195D02*
X0158346Y0206428D01*
X0156044Y0206428D01*
X0156044Y0204893D02*
X0156044Y0209497D01*
X0158346Y0209497D01*
X0159113Y0208730D01*
X0159113Y0207195D01*
X0142158Y0180520D02*
X0142925Y0179753D01*
X0142925Y0178986D01*
X0142158Y0178218D01*
X0142925Y0177451D01*
X0142925Y0176684D01*
X0142158Y0175917D01*
X0140623Y0175917D01*
X0139856Y0176684D01*
X0138321Y0176684D02*
X0137554Y0175917D01*
X0136019Y0175917D01*
X0135252Y0176684D01*
X0135252Y0179753D01*
X0136019Y0180520D01*
X0137554Y0180520D01*
X0138321Y0179753D01*
X0139856Y0179753D02*
X0140623Y0180520D01*
X0142158Y0180520D01*
X0142158Y0178218D02*
X0141391Y0178218D01*
X0141719Y0155386D02*
X0142486Y0154618D01*
X0143254Y0155386D01*
X0144021Y0155386D01*
X0144788Y0154618D01*
X0144788Y0153084D01*
X0144021Y0152317D01*
X0144788Y0150782D02*
X0143254Y0149247D01*
X0143254Y0150015D02*
X0143254Y0147713D01*
X0144788Y0147713D02*
X0140184Y0147713D01*
X0140184Y0150015D01*
X0140952Y0150782D01*
X0142486Y0150782D01*
X0143254Y0150015D01*
X0140952Y0152317D02*
X0140184Y0153084D01*
X0140184Y0154618D01*
X0140952Y0155386D01*
X0141719Y0155386D01*
X0142486Y0154618D02*
X0142486Y0153851D01*
X0124906Y0154045D02*
X0123372Y0152510D01*
X0123372Y0153278D02*
X0123372Y0150976D01*
X0124906Y0150976D02*
X0120302Y0150976D01*
X0120302Y0153278D01*
X0121070Y0154045D01*
X0122604Y0154045D01*
X0123372Y0153278D01*
X0122604Y0155580D02*
X0120302Y0157881D01*
X0124906Y0157881D01*
X0122604Y0158649D02*
X0122604Y0155580D01*
X0074240Y0169297D02*
X0074240Y0187097D01*
X0072407Y0181803D02*
X0073174Y0181036D01*
X0073174Y0179501D01*
X0072407Y0178734D01*
X0071639Y0178734D01*
X0070872Y0179501D01*
X0070872Y0181036D01*
X0071639Y0181803D01*
X0072407Y0181803D01*
X0070872Y0181036D02*
X0070105Y0181803D01*
X0069337Y0181803D01*
X0068570Y0181036D01*
X0068570Y0179501D01*
X0069337Y0178734D01*
X0070105Y0178734D01*
X0070872Y0179501D01*
X0071506Y0177570D02*
X0072273Y0177570D01*
X0073040Y0176803D01*
X0073040Y0175268D01*
X0072273Y0174501D01*
X0071639Y0174130D02*
X0071639Y0176432D01*
X0070872Y0177199D01*
X0069337Y0177199D01*
X0068570Y0176432D01*
X0068570Y0174130D01*
X0073174Y0174130D01*
X0072273Y0172966D02*
X0069204Y0172966D01*
X0068436Y0172199D01*
X0068436Y0169897D01*
X0073040Y0169897D01*
X0073040Y0172199D01*
X0072273Y0172966D01*
X0071639Y0175665D02*
X0073174Y0177199D01*
X0071506Y0177570D02*
X0070738Y0176803D01*
X0070738Y0176035D01*
X0070738Y0176803D02*
X0069971Y0177570D01*
X0069204Y0177570D01*
X0068436Y0176803D01*
X0068436Y0175268D01*
X0069204Y0174501D01*
X0060379Y0223889D02*
X0055775Y0223889D01*
X0055775Y0226191D01*
X0056542Y0226958D01*
X0058077Y0226958D01*
X0058844Y0226191D01*
X0058844Y0223889D01*
X0058844Y0225424D02*
X0060379Y0226958D01*
X0059611Y0228493D02*
X0060379Y0229260D01*
X0060379Y0230795D01*
X0059611Y0231562D01*
X0056542Y0231562D01*
X0055775Y0230795D01*
X0055775Y0229260D01*
X0056542Y0228493D01*
X0057309Y0228493D01*
X0058077Y0229260D01*
X0058077Y0231562D01*
X0084939Y0257747D02*
X0085707Y0256980D01*
X0087241Y0256980D01*
X0088009Y0257747D01*
X0089543Y0256980D02*
X0092613Y0260049D01*
X0092613Y0260816D01*
X0091845Y0261583D01*
X0090311Y0261583D01*
X0089543Y0260816D01*
X0088009Y0260816D02*
X0087241Y0261583D01*
X0085707Y0261583D01*
X0084939Y0260816D01*
X0084939Y0257747D01*
X0089543Y0256980D02*
X0092613Y0256980D01*
X0094147Y0256980D02*
X0097217Y0256980D01*
X0095682Y0256980D02*
X0095682Y0261583D01*
X0094147Y0260049D01*
X0094915Y0266822D02*
X0094147Y0267589D01*
X0094147Y0268357D01*
X0094915Y0269124D01*
X0096449Y0269124D01*
X0097217Y0268357D01*
X0097217Y0267589D01*
X0096449Y0266822D01*
X0094915Y0266822D01*
X0094915Y0269124D02*
X0094147Y0269891D01*
X0094147Y0270659D01*
X0094915Y0271426D01*
X0096449Y0271426D01*
X0097217Y0270659D01*
X0097217Y0269891D01*
X0096449Y0269124D01*
X0092613Y0266822D02*
X0089543Y0266822D01*
X0091078Y0266822D02*
X0091078Y0271426D01*
X0089543Y0269891D01*
X0088009Y0270659D02*
X0087241Y0271426D01*
X0085707Y0271426D01*
X0084939Y0270659D01*
X0084939Y0267589D01*
X0085707Y0266822D01*
X0087241Y0266822D01*
X0088009Y0267589D01*
X0087241Y0276665D02*
X0088009Y0277432D01*
X0087241Y0276665D02*
X0085707Y0276665D01*
X0084939Y0277432D01*
X0084939Y0280501D01*
X0085707Y0281268D01*
X0087241Y0281268D01*
X0088009Y0280501D01*
X0089543Y0279734D02*
X0091078Y0281268D01*
X0091078Y0276665D01*
X0089543Y0276665D02*
X0092613Y0276665D01*
X0094147Y0277432D02*
X0094915Y0276665D01*
X0096449Y0276665D01*
X0097217Y0277432D01*
X0097217Y0280501D01*
X0096449Y0281268D01*
X0094915Y0281268D01*
X0094147Y0280501D01*
X0094147Y0279734D01*
X0094915Y0278967D01*
X0097217Y0278967D01*
X0101995Y0292039D02*
X0101995Y0294341D01*
X0102763Y0295108D01*
X0104297Y0295108D01*
X0105065Y0294341D01*
X0105065Y0292039D01*
X0105065Y0293573D02*
X0106599Y0295108D01*
X0106599Y0296643D02*
X0103530Y0299712D01*
X0102763Y0299712D01*
X0101995Y0298944D01*
X0101995Y0297410D01*
X0102763Y0296643D01*
X0102861Y0299007D02*
X0099792Y0299007D01*
X0098257Y0299007D02*
X0096723Y0300542D01*
X0097490Y0300542D02*
X0095188Y0300542D01*
X0095188Y0299007D02*
X0095188Y0303611D01*
X0097490Y0303611D01*
X0098257Y0302844D01*
X0098257Y0301309D01*
X0097490Y0300542D01*
X0099792Y0302076D02*
X0101327Y0303611D01*
X0101327Y0299007D01*
X0103530Y0301246D02*
X0101995Y0302781D01*
X0106599Y0302781D01*
X0106698Y0303611D02*
X0107465Y0302844D01*
X0107465Y0302076D01*
X0106698Y0301309D01*
X0105163Y0301309D01*
X0104396Y0302076D01*
X0104396Y0302844D01*
X0105163Y0303611D01*
X0106698Y0303611D01*
X0106599Y0304316D02*
X0106599Y0301246D01*
X0106698Y0301309D02*
X0107465Y0300542D01*
X0107465Y0299774D01*
X0106698Y0299007D01*
X0105163Y0299007D01*
X0104396Y0299774D01*
X0104396Y0300542D01*
X0105163Y0301309D01*
X0106599Y0299712D02*
X0106599Y0296643D01*
X0106599Y0292039D02*
X0101995Y0292039D01*
X0093686Y0299774D02*
X0093686Y0302844D01*
X0092918Y0303611D01*
X0091384Y0303611D01*
X0090617Y0302844D01*
X0090617Y0302076D01*
X0091384Y0301309D01*
X0093686Y0301309D01*
X0093686Y0299774D02*
X0092918Y0299007D01*
X0091384Y0299007D01*
X0090617Y0299774D01*
X0089082Y0299007D02*
X0086013Y0299007D01*
X0087547Y0299007D02*
X0087547Y0303611D01*
X0086013Y0302076D01*
X0084478Y0301309D02*
X0084478Y0302844D01*
X0083711Y0303611D01*
X0081409Y0303611D01*
X0081409Y0299007D01*
X0081409Y0300542D02*
X0083711Y0300542D01*
X0084478Y0301309D01*
X0082943Y0300542D02*
X0084478Y0299007D01*
X0061855Y0294904D02*
X0057251Y0294904D01*
X0059553Y0292602D01*
X0059553Y0295672D01*
X0060655Y0295737D02*
X0060655Y0291133D01*
X0061088Y0291068D02*
X0058019Y0291068D01*
X0057251Y0290300D01*
X0057251Y0287998D01*
X0061855Y0287998D01*
X0061855Y0290300D01*
X0061088Y0291068D01*
X0062190Y0291133D02*
X0059120Y0291133D01*
X0057586Y0291133D02*
X0054517Y0291133D01*
X0056051Y0291133D02*
X0056051Y0295737D01*
X0054517Y0294202D01*
X0052982Y0294970D02*
X0052215Y0295737D01*
X0050680Y0295737D01*
X0049913Y0294970D01*
X0049913Y0291900D01*
X0050680Y0291133D01*
X0052215Y0291133D01*
X0052982Y0291900D01*
X0059120Y0294202D02*
X0060655Y0295737D01*
X0056818Y0299007D02*
X0057586Y0299774D01*
X0057586Y0302844D01*
X0056818Y0303611D01*
X0055284Y0303611D01*
X0054517Y0302844D01*
X0054517Y0302076D01*
X0055284Y0301309D01*
X0057586Y0301309D01*
X0056818Y0299007D02*
X0055284Y0299007D01*
X0054517Y0299774D01*
X0052982Y0299774D02*
X0052215Y0299007D01*
X0050680Y0299007D01*
X0049913Y0299774D01*
X0049913Y0302844D01*
X0050680Y0303611D01*
X0052215Y0303611D01*
X0052982Y0302844D01*
X0052215Y0304913D02*
X0052982Y0305680D01*
X0052215Y0304913D02*
X0050680Y0304913D01*
X0049913Y0305680D01*
X0049913Y0308749D01*
X0050680Y0309517D01*
X0052215Y0309517D01*
X0052982Y0308749D01*
X0054517Y0307982D02*
X0056051Y0309517D01*
X0056051Y0304913D01*
X0054517Y0304913D02*
X0057586Y0304913D01*
X0059120Y0307215D02*
X0062190Y0307215D01*
X0061422Y0309517D02*
X0059120Y0307215D01*
X0061422Y0304913D02*
X0061422Y0309517D01*
X0046442Y0315522D02*
X0045674Y0314755D01*
X0044140Y0314755D01*
X0043372Y0315522D01*
X0046442Y0318592D01*
X0046442Y0315522D01*
X0043372Y0315522D02*
X0043372Y0318592D01*
X0044140Y0319359D01*
X0045674Y0319359D01*
X0046442Y0318592D01*
X0041838Y0314755D02*
X0038768Y0314755D01*
X0037234Y0314755D02*
X0035699Y0316290D01*
X0036467Y0316290D02*
X0034165Y0316290D01*
X0034165Y0314755D02*
X0034165Y0319359D01*
X0036467Y0319359D01*
X0037234Y0318592D01*
X0037234Y0317057D01*
X0036467Y0316290D01*
X0038768Y0317824D02*
X0040303Y0319359D01*
X0040303Y0314755D01*
X0040303Y0324598D02*
X0040303Y0329202D01*
X0038768Y0327667D01*
X0037234Y0328434D02*
X0037234Y0326900D01*
X0036467Y0326132D01*
X0034165Y0326132D01*
X0035699Y0326132D02*
X0037234Y0324598D01*
X0038768Y0324598D02*
X0041838Y0324598D01*
X0043372Y0324598D02*
X0046442Y0324598D01*
X0044907Y0324598D02*
X0044907Y0329202D01*
X0043372Y0327667D01*
X0037234Y0328434D02*
X0036467Y0329202D01*
X0034165Y0329202D01*
X0034165Y0324598D01*
X0034165Y0334440D02*
X0034165Y0339044D01*
X0036467Y0339044D01*
X0037234Y0338277D01*
X0037234Y0336742D01*
X0036467Y0335975D01*
X0034165Y0335975D01*
X0035699Y0335975D02*
X0037234Y0334440D01*
X0038768Y0334440D02*
X0041838Y0334440D01*
X0043372Y0334440D02*
X0046442Y0337509D01*
X0046442Y0338277D01*
X0045674Y0339044D01*
X0044140Y0339044D01*
X0043372Y0338277D01*
X0043607Y0338041D02*
X0042840Y0338809D01*
X0043607Y0338041D02*
X0043607Y0336507D01*
X0042840Y0335739D01*
X0039770Y0335739D01*
X0039003Y0336507D01*
X0039003Y0338041D01*
X0039770Y0338809D01*
X0040303Y0339044D02*
X0040303Y0334440D01*
X0043372Y0334440D02*
X0046442Y0334440D01*
X0046090Y0337314D02*
X0046090Y0339616D01*
X0046857Y0340383D01*
X0048392Y0340383D01*
X0049159Y0339616D01*
X0049159Y0337314D01*
X0050694Y0337314D02*
X0046090Y0337314D01*
X0049159Y0338849D02*
X0050694Y0340383D01*
X0050694Y0341918D02*
X0050694Y0344987D01*
X0050694Y0343453D02*
X0046090Y0343453D01*
X0047624Y0341918D01*
X0046442Y0343475D02*
X0045674Y0342708D01*
X0044140Y0342708D01*
X0043372Y0343475D01*
X0043607Y0343413D02*
X0043607Y0340343D01*
X0043607Y0341878D02*
X0039003Y0341878D01*
X0040538Y0340343D01*
X0040303Y0339044D02*
X0038768Y0337509D01*
X0038768Y0342708D02*
X0041838Y0342708D01*
X0040303Y0342708D02*
X0040303Y0347312D01*
X0038768Y0345777D01*
X0039003Y0344947D02*
X0041305Y0344947D01*
X0040538Y0346482D01*
X0040538Y0347249D01*
X0041305Y0348016D01*
X0042840Y0348016D01*
X0043607Y0347249D01*
X0043607Y0345715D01*
X0042840Y0344947D01*
X0043372Y0346544D02*
X0044140Y0347312D01*
X0045674Y0347312D01*
X0046442Y0346544D01*
X0046442Y0345777D01*
X0045674Y0345010D01*
X0046442Y0344243D01*
X0046442Y0343475D01*
X0045674Y0345010D02*
X0044907Y0345010D01*
X0048392Y0346522D02*
X0048392Y0349591D01*
X0050694Y0348824D02*
X0046090Y0348824D01*
X0048392Y0346522D01*
X0054751Y0347623D02*
X0054751Y0344554D01*
X0054751Y0347623D02*
X0055519Y0347623D01*
X0058588Y0344554D01*
X0059355Y0344554D01*
X0059355Y0343019D02*
X0059355Y0339950D01*
X0059355Y0341484D02*
X0054751Y0341484D01*
X0056286Y0339950D01*
X0057053Y0338415D02*
X0057820Y0337648D01*
X0057820Y0335346D01*
X0057820Y0336880D02*
X0059355Y0338415D01*
X0057053Y0338415D02*
X0055519Y0338415D01*
X0054751Y0337648D01*
X0054751Y0335346D01*
X0059355Y0335346D01*
X0071287Y0335346D02*
X0071287Y0337648D01*
X0072054Y0338415D01*
X0073589Y0338415D01*
X0074356Y0337648D01*
X0074356Y0335346D01*
X0075321Y0335742D02*
X0075321Y0338044D01*
X0076088Y0338811D01*
X0076856Y0338811D01*
X0077623Y0338044D01*
X0077623Y0336509D01*
X0076856Y0335742D01*
X0075321Y0335742D01*
X0073786Y0337276D01*
X0073019Y0338811D01*
X0072821Y0339950D02*
X0071287Y0341484D01*
X0075891Y0341484D01*
X0075891Y0339950D02*
X0075891Y0343019D01*
X0075123Y0344554D02*
X0075891Y0345321D01*
X0075891Y0346855D01*
X0075123Y0347623D01*
X0073589Y0347623D01*
X0072821Y0346855D01*
X0072821Y0346088D01*
X0073589Y0344554D01*
X0071287Y0344554D01*
X0071287Y0347623D01*
X0075891Y0338415D02*
X0074356Y0336880D01*
X0075891Y0335346D02*
X0071287Y0335346D01*
X0073019Y0332672D02*
X0077623Y0332672D01*
X0077623Y0331138D02*
X0077623Y0334207D01*
X0074554Y0331138D02*
X0073019Y0332672D01*
X0073786Y0329603D02*
X0073019Y0328836D01*
X0073019Y0326534D01*
X0077623Y0326534D01*
X0076088Y0326534D02*
X0076088Y0328836D01*
X0075321Y0329603D01*
X0073786Y0329603D01*
X0076088Y0328069D02*
X0077623Y0329603D01*
X0087586Y0328836D02*
X0087586Y0327301D01*
X0088353Y0326534D01*
X0091422Y0326534D01*
X0092190Y0327301D01*
X0092190Y0328836D01*
X0091422Y0329603D01*
X0092190Y0331138D02*
X0092190Y0334207D01*
X0091739Y0335346D02*
X0094808Y0335346D01*
X0095576Y0336113D01*
X0095576Y0337648D01*
X0094808Y0338415D01*
X0095046Y0338811D02*
X0098115Y0335742D01*
X0098883Y0336509D01*
X0098883Y0338044D01*
X0098115Y0338811D01*
X0095046Y0338811D01*
X0094279Y0338044D01*
X0094279Y0336509D01*
X0095046Y0335742D01*
X0098115Y0335742D01*
X0098883Y0334207D02*
X0098883Y0331138D01*
X0095813Y0334207D01*
X0095046Y0334207D01*
X0094279Y0333440D01*
X0094279Y0331905D01*
X0095046Y0331138D01*
X0095046Y0329603D02*
X0096581Y0329603D01*
X0097348Y0328836D01*
X0097348Y0326534D01*
X0097348Y0328069D02*
X0098883Y0329603D01*
X0098883Y0326534D02*
X0094279Y0326534D01*
X0094279Y0328836D01*
X0095046Y0329603D01*
X0092190Y0332672D02*
X0087586Y0332672D01*
X0089120Y0331138D01*
X0088353Y0329603D02*
X0087586Y0328836D01*
X0088353Y0335742D02*
X0087586Y0336509D01*
X0087586Y0338044D01*
X0088353Y0338811D01*
X0089120Y0338811D01*
X0089888Y0338044D01*
X0090655Y0338811D01*
X0091422Y0338811D01*
X0092190Y0338044D01*
X0092190Y0336509D01*
X0091422Y0335742D01*
X0091739Y0335346D02*
X0090972Y0336113D01*
X0090972Y0337648D01*
X0091739Y0338415D01*
X0092506Y0339950D02*
X0090972Y0341484D01*
X0095576Y0341484D01*
X0095576Y0339950D02*
X0095576Y0343019D01*
X0094808Y0344554D02*
X0095576Y0345321D01*
X0095576Y0346855D01*
X0094808Y0347623D01*
X0094041Y0347623D01*
X0093274Y0346855D01*
X0093274Y0344554D01*
X0094808Y0344554D01*
X0093274Y0344554D02*
X0091739Y0346088D01*
X0090972Y0347623D01*
X0089888Y0338044D02*
X0089888Y0337276D01*
X0113609Y0326996D02*
X0118213Y0326996D01*
X0118213Y0325461D02*
X0118213Y0328531D01*
X0115144Y0325461D02*
X0113609Y0326996D01*
X0114377Y0323927D02*
X0113609Y0323159D01*
X0113609Y0321625D01*
X0114377Y0320857D01*
X0117446Y0320857D01*
X0118213Y0321625D01*
X0118213Y0323159D01*
X0117446Y0323927D01*
X0127229Y0310740D02*
X0127229Y0307671D01*
X0127229Y0309205D02*
X0122625Y0309205D01*
X0124160Y0307671D01*
X0124927Y0306136D02*
X0125695Y0305369D01*
X0125695Y0303067D01*
X0127229Y0303067D02*
X0122625Y0303067D01*
X0122625Y0305369D01*
X0123393Y0306136D01*
X0124927Y0306136D01*
X0125695Y0304602D02*
X0127229Y0306136D01*
X0127850Y0282331D02*
X0130152Y0282331D01*
X0130920Y0281564D01*
X0130920Y0278495D01*
X0130152Y0277728D01*
X0127850Y0277728D01*
X0127850Y0282331D01*
X0126316Y0280797D02*
X0126316Y0277728D01*
X0126316Y0280030D02*
X0123246Y0280030D01*
X0123246Y0280797D02*
X0124781Y0282331D01*
X0126316Y0280797D01*
X0123246Y0280797D02*
X0123246Y0277728D01*
X0120944Y0279262D02*
X0118643Y0279262D01*
X0118643Y0277728D02*
X0118643Y0282331D01*
X0120944Y0282331D01*
X0121712Y0281564D01*
X0121712Y0280030D01*
X0120944Y0279262D01*
X0121838Y0267945D02*
X0121838Y0264876D01*
X0124140Y0264876D01*
X0123372Y0266410D01*
X0123372Y0267178D01*
X0124140Y0267945D01*
X0125674Y0267945D01*
X0126442Y0267178D01*
X0126442Y0265643D01*
X0125674Y0264876D01*
X0126442Y0263341D02*
X0126442Y0260272D01*
X0123372Y0263341D01*
X0122605Y0263341D01*
X0121838Y0262574D01*
X0121838Y0261039D01*
X0122605Y0260272D01*
X0122605Y0258737D02*
X0121838Y0257970D01*
X0121838Y0256435D01*
X0122605Y0255668D01*
X0125674Y0255668D01*
X0126442Y0256435D01*
X0126442Y0257970D01*
X0125674Y0258737D01*
X0116599Y0257970D02*
X0115832Y0258737D01*
X0116599Y0257970D02*
X0116599Y0256435D01*
X0115832Y0255668D01*
X0112763Y0255668D01*
X0111995Y0256435D01*
X0111995Y0257970D01*
X0112763Y0258737D01*
X0112763Y0260272D02*
X0111995Y0261039D01*
X0111995Y0262574D01*
X0112763Y0263341D01*
X0113530Y0263341D01*
X0116599Y0260272D01*
X0116599Y0263341D01*
X0115832Y0264876D02*
X0116599Y0265643D01*
X0116599Y0267178D01*
X0115832Y0267945D01*
X0115065Y0267945D01*
X0114297Y0267178D01*
X0114297Y0264876D01*
X0115832Y0264876D01*
X0114297Y0264876D02*
X0112763Y0266410D01*
X0111995Y0267945D01*
X0132454Y0278495D02*
X0133222Y0277728D01*
X0134756Y0277728D01*
X0135524Y0278495D01*
X0135524Y0279262D01*
X0134756Y0280030D01*
X0133989Y0280030D01*
X0134756Y0280030D02*
X0135524Y0280797D01*
X0135524Y0281564D01*
X0134756Y0282331D01*
X0133222Y0282331D01*
X0132454Y0281564D01*
X0154243Y0263474D02*
X0154243Y0260404D01*
X0155011Y0259637D01*
X0156545Y0259637D01*
X0157313Y0260404D01*
X0158847Y0260404D02*
X0158847Y0259637D01*
X0158847Y0260404D02*
X0161917Y0263474D01*
X0161917Y0264241D01*
X0158847Y0264241D01*
X0157313Y0263474D02*
X0156545Y0264241D01*
X0155011Y0264241D01*
X0154243Y0263474D01*
X0156070Y0270114D02*
X0159139Y0270114D01*
X0159906Y0270881D01*
X0159906Y0272416D01*
X0159139Y0273183D01*
X0157604Y0274718D02*
X0157604Y0277787D01*
X0155302Y0277020D02*
X0157604Y0274718D01*
X0156070Y0273183D02*
X0155302Y0272416D01*
X0155302Y0270881D01*
X0156070Y0270114D01*
X0155302Y0277020D02*
X0159906Y0277020D01*
X0184830Y0276353D02*
X0184830Y0274818D01*
X0185597Y0274051D01*
X0185597Y0272517D02*
X0184830Y0271749D01*
X0184830Y0270215D01*
X0185597Y0269447D01*
X0188667Y0269447D01*
X0189434Y0270215D01*
X0189434Y0271749D01*
X0188667Y0272517D01*
X0189434Y0274051D02*
X0186365Y0277120D01*
X0185597Y0277120D01*
X0184830Y0276353D01*
X0185597Y0278655D02*
X0186365Y0278655D01*
X0187132Y0279422D01*
X0187132Y0280957D01*
X0187899Y0281724D01*
X0188667Y0281724D01*
X0189434Y0280957D01*
X0189434Y0279422D01*
X0188667Y0278655D01*
X0187899Y0278655D01*
X0187132Y0279422D01*
X0187132Y0280957D02*
X0186365Y0281724D01*
X0185597Y0281724D01*
X0184830Y0280957D01*
X0184830Y0279422D01*
X0185597Y0278655D01*
X0189434Y0277120D02*
X0189434Y0274051D01*
X0190735Y0274818D02*
X0191503Y0274051D01*
X0190735Y0274818D02*
X0190735Y0276353D01*
X0191503Y0277120D01*
X0192270Y0277120D01*
X0195339Y0274051D01*
X0195339Y0277120D01*
X0195339Y0278655D02*
X0194572Y0278655D01*
X0191503Y0281724D01*
X0190735Y0281724D01*
X0190735Y0278655D01*
X0191503Y0272517D02*
X0190735Y0271749D01*
X0190735Y0270215D01*
X0191503Y0269447D01*
X0194572Y0269447D01*
X0195339Y0270215D01*
X0195339Y0271749D01*
X0194572Y0272517D01*
X0193947Y0295070D02*
X0194714Y0295837D01*
X0193947Y0295070D02*
X0192412Y0295070D01*
X0191645Y0295837D01*
X0191645Y0298907D01*
X0192412Y0299674D01*
X0193947Y0299674D01*
X0194714Y0298907D01*
X0196249Y0298907D02*
X0197016Y0299674D01*
X0198551Y0299674D01*
X0199318Y0298907D01*
X0199318Y0298139D01*
X0196249Y0295070D01*
X0199318Y0295070D01*
X0182094Y0305759D02*
X0179024Y0305759D01*
X0177490Y0305759D02*
X0175955Y0307294D01*
X0175188Y0305759D02*
X0174420Y0306526D01*
X0174420Y0309596D01*
X0175188Y0310363D01*
X0176722Y0310363D01*
X0177490Y0309596D01*
X0177490Y0306526D01*
X0176722Y0305759D01*
X0175188Y0305759D01*
X0179024Y0308828D02*
X0180559Y0310363D01*
X0180559Y0305759D01*
X0181420Y0325909D02*
X0183488Y0325909D01*
X0184643Y0327460D02*
X0186711Y0327460D01*
X0186194Y0329011D02*
X0184643Y0327460D01*
X0186194Y0325909D02*
X0186194Y0329011D01*
X0181420Y0329011D02*
X0181420Y0325909D01*
X0151127Y0346153D02*
X0146523Y0349222D01*
X0148057Y0350757D02*
X0146523Y0352291D01*
X0151127Y0352291D01*
X0151127Y0350757D02*
X0151127Y0353826D01*
X0151127Y0349222D02*
X0146523Y0346153D01*
X0138649Y0351566D02*
X0135580Y0351566D01*
X0138649Y0354635D01*
X0138649Y0355403D01*
X0137881Y0356170D01*
X0136347Y0356170D01*
X0135580Y0355403D01*
X0134045Y0355403D02*
X0134045Y0353868D01*
X0133278Y0353101D01*
X0130976Y0353101D01*
X0132510Y0353101D02*
X0134045Y0351566D01*
X0130976Y0351566D02*
X0130976Y0356170D01*
X0133278Y0356170D01*
X0134045Y0355403D01*
X0122879Y0359499D02*
X0118275Y0359499D01*
X0118275Y0361801D01*
X0119042Y0362568D01*
X0120577Y0362568D01*
X0121344Y0361801D01*
X0121344Y0359499D01*
X0120577Y0364103D02*
X0120577Y0367172D01*
X0119809Y0367172D02*
X0122879Y0367172D01*
X0122879Y0368707D02*
X0122879Y0371009D01*
X0122111Y0371776D01*
X0119042Y0371776D01*
X0118275Y0371009D01*
X0118275Y0368707D01*
X0122879Y0368707D01*
X0119809Y0367172D02*
X0118275Y0365638D01*
X0119809Y0364103D01*
X0122879Y0364103D01*
X0122111Y0373311D02*
X0122879Y0374078D01*
X0122879Y0375613D01*
X0122111Y0376380D01*
X0120577Y0376380D01*
X0119809Y0375613D01*
X0119809Y0374846D01*
X0120577Y0373311D01*
X0118275Y0373311D01*
X0118275Y0376380D01*
X0039003Y0348016D02*
X0039003Y0344947D01*
X0037234Y0345010D02*
X0036467Y0344243D01*
X0034165Y0344243D01*
X0035699Y0344243D02*
X0037234Y0342708D01*
X0037234Y0345010D02*
X0037234Y0346544D01*
X0036467Y0347312D01*
X0034165Y0347312D01*
X0034165Y0342708D01*
X0034894Y0297548D02*
X0033359Y0297548D01*
X0032592Y0296781D01*
X0034894Y0297548D02*
X0035661Y0296781D01*
X0035661Y0296013D01*
X0032592Y0292944D01*
X0035661Y0292944D01*
X0031057Y0292944D02*
X0027988Y0292944D01*
X0029523Y0292944D02*
X0029523Y0297548D01*
X0027988Y0296013D01*
X0026454Y0296781D02*
X0025686Y0297548D01*
X0024152Y0297548D01*
X0023384Y0296781D01*
X0023384Y0293711D01*
X0024152Y0292944D01*
X0025686Y0292944D01*
X0026454Y0293711D01*
X0025686Y0287705D02*
X0024152Y0287705D01*
X0023384Y0286938D01*
X0023384Y0283869D01*
X0024152Y0283102D01*
X0025686Y0283102D01*
X0026454Y0283869D01*
X0027988Y0283102D02*
X0031057Y0283102D01*
X0029523Y0283102D02*
X0029523Y0287705D01*
X0027988Y0286171D01*
X0026454Y0286938D02*
X0025686Y0287705D01*
X0032592Y0286938D02*
X0032592Y0283869D01*
X0035661Y0286938D01*
X0035661Y0283869D01*
X0034894Y0283102D01*
X0033359Y0283102D01*
X0032592Y0283869D01*
X0032592Y0286938D02*
X0033359Y0287705D01*
X0034894Y0287705D01*
X0035661Y0286938D01*
X0057251Y0284929D02*
X0058786Y0286464D01*
X0061855Y0286464D01*
X0059553Y0286464D02*
X0059553Y0283394D01*
X0058786Y0283394D02*
X0057251Y0284929D01*
X0058786Y0283394D02*
X0061855Y0283394D01*
X0060320Y0281093D02*
X0060320Y0278791D01*
X0061855Y0278791D02*
X0057251Y0278791D01*
X0057251Y0281093D01*
X0058019Y0281860D01*
X0059553Y0281860D01*
X0060320Y0281093D01*
D11*
X0084943Y0234132D02*
X0087195Y0234132D01*
X0087945Y0233381D01*
X0087945Y0230379D01*
X0087195Y0229628D01*
X0084943Y0229628D01*
X0084943Y0234132D01*
X0089547Y0234132D02*
X0089547Y0231880D01*
X0091048Y0232631D01*
X0091799Y0232631D01*
X0092549Y0231880D01*
X0092549Y0230379D01*
X0091799Y0229628D01*
X0090297Y0229628D01*
X0089547Y0230379D01*
X0089547Y0234132D02*
X0092549Y0234132D01*
X0075897Y0213263D02*
X0075146Y0213263D01*
X0074396Y0212512D01*
X0074396Y0210260D01*
X0075897Y0210260D01*
X0076648Y0211011D01*
X0076648Y0212512D01*
X0075897Y0213263D01*
X0072894Y0211762D02*
X0074396Y0210260D01*
X0072894Y0211762D02*
X0072144Y0213263D01*
X0072894Y0208659D02*
X0072144Y0207908D01*
X0072144Y0205656D01*
X0076648Y0205656D01*
X0076648Y0207908D01*
X0075897Y0208659D01*
X0072894Y0208659D01*
X0119388Y0138460D02*
X0120139Y0138460D01*
X0123141Y0135457D01*
X0123892Y0135457D01*
X0123141Y0133856D02*
X0120139Y0133856D01*
X0119388Y0133105D01*
X0119388Y0130853D01*
X0123892Y0130853D01*
X0123892Y0133105D01*
X0123141Y0133856D01*
X0119388Y0135457D02*
X0119388Y0138460D01*
X0129598Y0295780D02*
X0129598Y0337780D01*
X0171598Y0337780D01*
X0171598Y0295780D01*
X0129598Y0295780D01*
X0173665Y0330209D02*
X0186665Y0330209D01*
X0186665Y0337209D01*
X0173665Y0337209D01*
X0173665Y0330209D01*
D12*
X0169098Y0297780D02*
X0169100Y0297824D01*
X0169106Y0297868D01*
X0169116Y0297911D01*
X0169129Y0297953D01*
X0169146Y0297994D01*
X0169167Y0298033D01*
X0169191Y0298070D01*
X0169218Y0298105D01*
X0169248Y0298137D01*
X0169281Y0298167D01*
X0169317Y0298193D01*
X0169354Y0298217D01*
X0169394Y0298236D01*
X0169435Y0298253D01*
X0169478Y0298265D01*
X0169521Y0298274D01*
X0169565Y0298279D01*
X0169609Y0298280D01*
X0169653Y0298277D01*
X0169697Y0298270D01*
X0169740Y0298259D01*
X0169782Y0298245D01*
X0169822Y0298227D01*
X0169861Y0298205D01*
X0169897Y0298181D01*
X0169931Y0298153D01*
X0169963Y0298122D01*
X0169992Y0298088D01*
X0170018Y0298052D01*
X0170040Y0298014D01*
X0170059Y0297974D01*
X0170074Y0297932D01*
X0170086Y0297890D01*
X0170094Y0297846D01*
X0170098Y0297802D01*
X0170098Y0297758D01*
X0170094Y0297714D01*
X0170086Y0297670D01*
X0170074Y0297628D01*
X0170059Y0297586D01*
X0170040Y0297546D01*
X0170018Y0297508D01*
X0169992Y0297472D01*
X0169963Y0297438D01*
X0169931Y0297407D01*
X0169897Y0297379D01*
X0169861Y0297355D01*
X0169822Y0297333D01*
X0169782Y0297315D01*
X0169740Y0297301D01*
X0169697Y0297290D01*
X0169653Y0297283D01*
X0169609Y0297280D01*
X0169565Y0297281D01*
X0169521Y0297286D01*
X0169478Y0297295D01*
X0169435Y0297307D01*
X0169394Y0297324D01*
X0169354Y0297343D01*
X0169317Y0297367D01*
X0169281Y0297393D01*
X0169248Y0297423D01*
X0169218Y0297455D01*
X0169191Y0297490D01*
X0169167Y0297527D01*
X0169146Y0297566D01*
X0169129Y0297607D01*
X0169116Y0297649D01*
X0169106Y0297692D01*
X0169100Y0297736D01*
X0169098Y0297780D01*
X0104378Y0228689D02*
X0104378Y0226425D01*
X0104378Y0228689D02*
X0086661Y0228689D01*
X0086661Y0226425D01*
X0086661Y0216583D02*
X0086661Y0214319D01*
X0104378Y0214319D01*
X0071209Y0212646D02*
X0071209Y0194929D01*
X0068945Y0194929D01*
X0056839Y0194929D02*
X0056839Y0212646D01*
X0059102Y0212646D01*
X0068945Y0212646D02*
X0071209Y0212646D01*
X0104083Y0137843D02*
X0106346Y0137843D01*
X0104083Y0137843D02*
X0104083Y0120126D01*
X0116189Y0120126D02*
X0118453Y0120126D01*
X0118453Y0137843D01*
X0116189Y0137843D01*
X0059102Y0194930D02*
X0057970Y0194939D01*
X0056838Y0194930D01*
X0104378Y0214319D02*
X0104369Y0215451D01*
X0104378Y0216583D01*
X0104083Y0120126D02*
X0105215Y0120135D01*
X0106347Y0120126D01*
D13*
X0173064Y0315670D02*
X0174531Y0315670D01*
X0174898Y0316037D01*
X0174898Y0316771D01*
X0174531Y0317138D01*
X0173797Y0317138D01*
X0173797Y0316404D01*
X0173064Y0317138D02*
X0172697Y0316771D01*
X0172697Y0316037D01*
X0173064Y0315670D01*
X0173431Y0317880D02*
X0172697Y0318613D01*
X0174898Y0318613D01*
X0174898Y0317880D02*
X0174898Y0319347D01*
D14*
X0128548Y0319303D02*
X0127047Y0319303D01*
X0127047Y0320304D01*
X0127047Y0320776D02*
X0128548Y0320776D01*
X0128548Y0321777D01*
X0128548Y0322249D02*
X0127047Y0322249D01*
X0127047Y0323000D01*
X0127297Y0323250D01*
X0127798Y0323250D01*
X0128048Y0323000D01*
X0128048Y0322249D01*
X0128548Y0323722D02*
X0127047Y0324723D01*
X0127798Y0325196D02*
X0127798Y0326197D01*
X0128548Y0326669D02*
X0128548Y0327670D01*
X0128548Y0326669D02*
X0127047Y0326669D01*
X0128548Y0324723D02*
X0127047Y0323722D01*
X0127798Y0319803D02*
X0127798Y0319303D01*
X0128048Y0318830D02*
X0128298Y0318830D01*
X0128548Y0318580D01*
X0128548Y0318080D01*
X0128298Y0317829D01*
X0128048Y0317829D01*
X0127798Y0318080D01*
X0127798Y0318580D01*
X0128048Y0318830D01*
X0127798Y0318580D02*
X0127548Y0318830D01*
X0127297Y0318830D01*
X0127047Y0318580D01*
X0127047Y0318080D01*
X0127297Y0317829D01*
X0127548Y0317829D01*
X0127798Y0318080D01*
X0128048Y0317357D02*
X0128298Y0317357D01*
X0128548Y0317107D01*
X0128548Y0316606D01*
X0128298Y0316356D01*
X0128298Y0315884D02*
X0128548Y0315634D01*
X0128548Y0315133D01*
X0128298Y0314883D01*
X0128048Y0314883D01*
X0127798Y0315133D01*
X0127798Y0315634D01*
X0128048Y0315884D01*
X0128298Y0315884D01*
X0127798Y0315634D02*
X0127548Y0315884D01*
X0127297Y0315884D01*
X0127047Y0315634D01*
X0127047Y0315133D01*
X0127297Y0314883D01*
X0127548Y0314883D01*
X0127798Y0315133D01*
X0128048Y0314411D02*
X0128298Y0314411D01*
X0128548Y0314160D01*
X0128548Y0313660D01*
X0128298Y0313410D01*
X0128298Y0312937D02*
X0127047Y0312937D01*
X0127297Y0313410D02*
X0127548Y0313410D01*
X0127798Y0313660D01*
X0127798Y0314160D01*
X0128048Y0314411D01*
X0127297Y0314411D02*
X0127047Y0314160D01*
X0127047Y0313660D01*
X0127297Y0313410D01*
X0128298Y0312937D02*
X0128548Y0312687D01*
X0128548Y0312187D01*
X0128298Y0311936D01*
X0127047Y0311936D01*
X0127047Y0311464D02*
X0128548Y0311464D01*
X0127047Y0310463D01*
X0128548Y0310463D01*
X0128548Y0309991D02*
X0128548Y0308990D01*
X0127047Y0308990D01*
X0127047Y0309991D01*
X0127798Y0309490D02*
X0127798Y0308990D01*
X0128048Y0308518D02*
X0127047Y0308518D01*
X0128048Y0308518D02*
X0128548Y0308017D01*
X0128048Y0307517D01*
X0127047Y0307517D01*
X0127297Y0316356D02*
X0127047Y0316606D01*
X0127047Y0317107D01*
X0127297Y0317357D01*
X0127548Y0317357D01*
X0127798Y0317107D01*
X0128048Y0317357D01*
X0127798Y0317107D02*
X0127798Y0316857D01*
D15*
X0158118Y0354565D02*
X0169535Y0354565D01*
X0169791Y0371051D02*
X0157862Y0371051D01*
X0175787Y0300059D02*
X0186433Y0300059D01*
X0186433Y0295311D01*
X0175787Y0295311D01*
X0175787Y0300059D01*
X0085677Y0178957D02*
X0077803Y0178957D01*
X0081740Y0174929D01*
X0085677Y0178957D01*
X0108295Y0086189D02*
X0059102Y0086189D01*
X0059102Y0073354D01*
X0108295Y0073354D01*
X0108295Y0086189D01*
D16*
X0091091Y0215598D03*
X0091091Y0227409D03*
D17*
X0069929Y0208217D03*
X0058118Y0208217D03*
X0105362Y0133413D03*
X0117173Y0133413D03*
M02*
