%
M48
M72
T01C0.01378
%
T01
X44339Y52213
X34496Y73866
X58118Y101425
X60087Y105362
X65992Y99457
X69509Y103394
X60087Y119142
X54181Y138827
X32528Y134890
X30559Y176228
X46970Y179503
X51115Y187168
X69929Y221504
X56150Y233315
X71898Y256937
X81740Y253000
X91583Y253000
X89614Y245126
X103394Y243157
X105362Y247094
X103394Y256937
X111268Y256937
X119142Y253000
X120590Y249063
X126995Y241189
X134890Y233513
X134890Y219535
X140795Y215598
X134890Y213630
X140795Y209693
X134890Y205756
X127016Y205756
X121110Y205756
X127016Y213630
X127016Y219535
X150638Y227409
X162449Y237252
X156543Y245126
X150638Y247509
X142764Y257528
X148669Y270204
X156543Y266780
X158091Y272685
X166386Y268748
X170323Y266780
X162449Y260874
X162449Y251031
X172291Y241189
X180165Y233315
X193945Y241189
X195913Y256937
X180165Y262843
X180165Y272685
X176228Y282528
X168354Y280559
X171877Y290402
X166386Y293222
X174260Y304181
X178197Y307331
X182134Y312055
X174260Y323866
X159299Y325835
X159299Y319929
X153394Y319929
X153394Y325835
X147488Y325835
X147488Y319929
X142764Y319929
X141583Y325835
X141583Y314024
X141583Y308118
X127016Y310087
X127016Y317961
X121110Y333709
X134890Y341583
X140795Y343551
X142764Y351425
X148669Y351425
X148669Y357331
X142764Y357331
X142764Y363236
X148669Y363236
X148669Y369142
X142764Y369142
X117173Y365205
X81740Y373079
X73866Y361268
X69929Y345520
X65992Y330292
X69153Y325059
X74387Y323763
X73866Y304181
X67961Y302213
X60087Y302213
X44339Y317961
X44339Y323866
X45531Y328579
X44339Y331957
X52213Y330192
X56150Y332261
X30559Y327409
X46307Y359299
X56150Y373079
X26622Y375047
X99457Y302213
X91583Y291976
X103394Y286465
X107331Y282528
X113236Y282528
X111268Y276622
X117173Y276622
X119142Y280559
X115205Y292370
X115205Y298276
X121110Y300244
X140795Y293965
X148669Y294339
X159299Y308118
X159299Y314024
X165205Y308118
X197882Y278591
X184102Y217567
X164417Y193945
X148669Y166386
X144732Y158512
X134890Y162449
X127016Y184102
X99457Y146701
X79772Y134890
X107331Y101425
X95520Y83709
X101425Y79772
X97488Y77389
X91583Y77803
X85677Y77803
X81740Y77803
X75835Y77803
X71898Y77803
X65992Y77803
X97488Y52213
X101425Y56150
X101425Y48276
X125047Y62055
X140795Y65992
X158512Y60087
X164417Y77803
X173846Y89614
X170323Y93551
X180165Y93551
X193945Y95520
X190008Y69929
X160480Y105362
X138827Y101425
X121110Y79772
X123079Y127016
X172291Y130953
X172291Y154575
X195913Y160480
X191976Y176228
X195913Y190008
X195913Y128984
X64024Y266780
X62055Y274654
X54181Y278591
X71898Y270717
X77803Y276622
X79772Y284496
X105362Y276622
X103394Y270717
X54181Y258906
X180165Y351425
X180165Y357331
X186071Y357331
X186071Y351425
X193945Y361268
X186071Y363236
X180165Y363236
X180165Y369142
X186071Y369142
M30
