G75*
%MOIN*%
%OFA0B0*%
%FSLAX25Y25*%
%IPPOS*%
%LPD*%
%AMOC8*
5,1,8,0,0,1.08239X$1,22.5*
%
%ADD10R,0.04437X0.04831*%
%ADD11R,0.05618X0.06406*%
%ADD12R,0.04043X0.03256*%
%ADD13R,0.07000X0.11701*%
%ADD14R,0.04000X0.02154*%
%ADD15R,0.01917X0.03256*%
%ADD16R,0.03256X0.01917*%
%ADD17C,0.02862*%
%ADD18R,0.04437X0.06012*%
%ADD19R,0.04831X0.04437*%
%ADD20R,0.06012X0.12213*%
%ADD21R,0.06248X0.12213*%
%ADD22R,0.03492X0.19004*%
%ADD23R,0.14280X0.08374*%
%ADD24R,0.03492X0.09949*%
%ADD25R,0.08768X0.08768*%
%ADD26R,0.02862X0.01681*%
%ADD27R,0.01681X0.02862*%
%ADD28R,0.10500X0.20500*%
%ADD29R,0.20500X0.10500*%
%ADD30R,0.09949X0.09949*%
%ADD31R,0.08768X0.12705*%
%ADD32R,0.03650X0.01287*%
%ADD33R,0.01287X0.03650*%
%ADD34R,0.03256X0.04043*%
%ADD35R,0.12114X0.14280*%
%ADD36R,0.12311X0.14280*%
%ADD37C,0.01125*%
%ADD38R,0.08374X0.08374*%
%ADD39C,0.03278*%
D10*
X0097882Y0192567D03*
X0104575Y0192567D03*
X0115677Y0212882D03*
X0122370Y0212882D03*
X0119142Y0263433D03*
X0119142Y0270126D03*
X0109299Y0270126D03*
X0109299Y0263433D03*
X0100835Y0296307D03*
X0094142Y0296307D03*
X0087055Y0296307D03*
X0080362Y0296307D03*
X0039811Y0312055D03*
X0033118Y0312055D03*
X0033118Y0321898D03*
X0039811Y0321898D03*
X0039811Y0331740D03*
X0033118Y0331740D03*
X0033118Y0340008D03*
X0039811Y0340008D03*
X0120913Y0326504D03*
X0120913Y0319811D03*
X0129929Y0348866D03*
X0136622Y0348866D03*
X0152606Y0279969D03*
X0152606Y0273276D03*
D11*
X0097291Y0276622D03*
X0089811Y0276622D03*
X0089811Y0266780D03*
X0097291Y0266780D03*
X0097291Y0286465D03*
X0089811Y0286465D03*
X0125598Y0196701D03*
X0133079Y0196701D03*
X0135520Y0185717D03*
X0143000Y0185717D03*
D12*
X0083000Y0158591D03*
X0083000Y0153472D03*
X0182134Y0278000D03*
X0182134Y0283118D03*
X0188039Y0283118D03*
X0188039Y0278000D03*
X0098276Y0335087D03*
X0098276Y0340205D03*
X0084890Y0340205D03*
X0084890Y0335087D03*
X0046307Y0335480D03*
X0046307Y0340598D03*
D13*
X0135756Y0171189D03*
D14*
X0143787Y0172449D03*
X0143787Y0175008D03*
X0143787Y0177567D03*
X0143787Y0169890D03*
X0143787Y0167331D03*
X0143787Y0164772D03*
X0127685Y0164772D03*
X0127685Y0167331D03*
X0127685Y0169890D03*
X0127685Y0172449D03*
X0127685Y0175008D03*
X0127685Y0177567D03*
D15*
X0134850Y0298157D03*
X0138000Y0298157D03*
X0141150Y0298157D03*
X0144299Y0298157D03*
X0147449Y0298157D03*
X0150598Y0298157D03*
X0153748Y0298157D03*
X0156898Y0298157D03*
X0160047Y0298157D03*
X0163197Y0298157D03*
X0166346Y0298157D03*
X0166346Y0335402D03*
X0163197Y0335402D03*
X0160047Y0335402D03*
X0156898Y0335402D03*
X0153748Y0335402D03*
X0150598Y0335402D03*
X0147449Y0335402D03*
X0144299Y0335402D03*
X0141150Y0335402D03*
X0138000Y0335402D03*
X0134850Y0335402D03*
D16*
X0131976Y0332528D03*
X0131976Y0329378D03*
X0131976Y0326228D03*
X0131976Y0323079D03*
X0131976Y0319929D03*
X0131976Y0316780D03*
X0131976Y0313630D03*
X0131976Y0310480D03*
X0131976Y0307331D03*
X0131976Y0304181D03*
X0131976Y0301031D03*
X0169220Y0301031D03*
X0169220Y0304181D03*
X0169220Y0307331D03*
X0169220Y0310480D03*
X0169220Y0313630D03*
X0169220Y0316780D03*
X0169220Y0319929D03*
X0169220Y0323079D03*
X0169220Y0326228D03*
X0169220Y0329378D03*
X0169220Y0332528D03*
D17*
X0162409Y0328591D03*
X0156504Y0328591D03*
X0156504Y0322685D03*
X0162409Y0322685D03*
X0162409Y0316780D03*
X0156504Y0316780D03*
X0156504Y0310874D03*
X0162409Y0310874D03*
X0162409Y0304969D03*
X0156504Y0304969D03*
X0150598Y0304969D03*
X0144693Y0304969D03*
X0138787Y0304969D03*
X0138787Y0310874D03*
X0138787Y0316780D03*
X0144693Y0316780D03*
X0150598Y0316780D03*
X0150598Y0310874D03*
X0144693Y0310874D03*
X0144693Y0322685D03*
X0150598Y0322685D03*
X0150598Y0328591D03*
X0144693Y0328591D03*
X0138787Y0328591D03*
X0138787Y0322685D03*
D18*
X0177370Y0293354D03*
X0184850Y0293354D03*
X0181110Y0302016D03*
D19*
X0190598Y0292370D03*
X0197291Y0292370D03*
X0159890Y0256937D03*
X0153197Y0256937D03*
X0109299Y0290992D03*
X0109299Y0297685D03*
X0119929Y0306228D03*
X0119929Y0312921D03*
X0091583Y0334299D03*
X0091583Y0340992D03*
X0078591Y0340992D03*
X0078591Y0334299D03*
X0070323Y0334299D03*
X0070323Y0340992D03*
X0062055Y0340992D03*
X0062055Y0334299D03*
X0053394Y0336268D03*
X0053394Y0342961D03*
X0037843Y0300244D03*
X0031150Y0300244D03*
X0031150Y0290402D03*
X0037843Y0290402D03*
X0048866Y0288433D03*
X0055559Y0288433D03*
X0063079Y0229535D03*
X0063079Y0222843D03*
X0065874Y0183984D03*
X0065874Y0177291D03*
X0114181Y0198709D03*
X0114181Y0205402D03*
X0127606Y0156622D03*
X0127606Y0149929D03*
X0137488Y0150874D03*
X0137488Y0157567D03*
D20*
X0163827Y0346740D03*
D21*
X0170963Y0346789D03*
X0156691Y0346839D03*
D22*
X0155313Y0361701D03*
X0172341Y0361701D03*
D23*
X0105638Y0180362D03*
X0105638Y0157921D03*
D24*
X0106209Y0091386D03*
X0101209Y0091386D03*
X0096209Y0091386D03*
X0091209Y0091386D03*
X0086209Y0091386D03*
X0081209Y0091386D03*
X0076209Y0091386D03*
X0071209Y0091386D03*
X0066209Y0091386D03*
X0061209Y0091386D03*
X0061209Y0068157D03*
X0066209Y0068157D03*
X0071209Y0068157D03*
X0076209Y0068157D03*
X0081209Y0068157D03*
X0086209Y0068157D03*
X0091209Y0068157D03*
X0096209Y0068157D03*
X0101209Y0068157D03*
X0106209Y0068157D03*
D25*
X0136858Y0245126D03*
X0136858Y0268748D03*
D26*
X0130165Y0267469D03*
X0130165Y0270028D03*
X0130165Y0272587D03*
X0130165Y0264909D03*
X0143551Y0264909D03*
X0143551Y0267469D03*
X0143551Y0270028D03*
X0143551Y0272587D03*
X0143551Y0248965D03*
X0143551Y0246406D03*
X0143551Y0243846D03*
X0143551Y0241287D03*
X0130165Y0241287D03*
X0130165Y0243846D03*
X0130165Y0246406D03*
X0130165Y0248965D03*
D27*
X0133020Y0251819D03*
X0135579Y0251819D03*
X0138138Y0251819D03*
X0140697Y0251819D03*
X0140697Y0262055D03*
X0138138Y0262055D03*
X0135579Y0262055D03*
X0133020Y0262055D03*
X0133020Y0275441D03*
X0135579Y0275441D03*
X0138138Y0275441D03*
X0140697Y0275441D03*
X0140697Y0238433D03*
X0138138Y0238433D03*
X0135579Y0238433D03*
X0133020Y0238433D03*
D28*
X0067961Y0288433D03*
X0128984Y0369142D03*
D29*
X0127409Y0288433D03*
X0164417Y0227409D03*
X0164417Y0215598D03*
D30*
X0081740Y0186858D03*
X0081740Y0169535D03*
D31*
X0058118Y0317961D03*
D32*
X0065008Y0317961D03*
X0065008Y0319535D03*
X0065008Y0321110D03*
X0065008Y0322685D03*
X0065008Y0324260D03*
X0065008Y0316386D03*
X0065008Y0314811D03*
X0065008Y0313236D03*
X0065008Y0311661D03*
X0051228Y0311661D03*
X0051228Y0313236D03*
X0051228Y0314811D03*
X0051228Y0316386D03*
X0051228Y0317961D03*
X0051228Y0319535D03*
X0051228Y0321110D03*
X0051228Y0322685D03*
X0051228Y0324260D03*
D33*
X0054969Y0326819D03*
X0056543Y0326819D03*
X0058118Y0326819D03*
X0059693Y0326819D03*
X0061268Y0326819D03*
X0061268Y0309102D03*
X0059693Y0309102D03*
X0058118Y0309102D03*
X0056543Y0309102D03*
X0054969Y0309102D03*
D34*
X0054772Y0302213D03*
X0049654Y0302213D03*
X0049654Y0296307D03*
X0054772Y0296307D03*
D35*
X0084890Y0315992D03*
D36*
X0106150Y0315992D03*
D37*
X0174977Y0336147D02*
X0178353Y0336147D01*
X0178353Y0331271D01*
X0174977Y0331271D01*
X0174977Y0336147D01*
X0174977Y0332395D02*
X0178353Y0332395D01*
X0178353Y0333519D02*
X0174977Y0333519D01*
X0174977Y0334643D02*
X0178353Y0334643D01*
X0178353Y0335767D02*
X0174977Y0335767D01*
X0181977Y0336147D02*
X0185353Y0336147D01*
X0185353Y0331271D01*
X0181977Y0331271D01*
X0181977Y0336147D01*
X0181977Y0332395D02*
X0185353Y0332395D01*
X0185353Y0333519D02*
X0181977Y0333519D01*
X0181977Y0334643D02*
X0185353Y0334643D01*
X0185353Y0335767D02*
X0181977Y0335767D01*
D38*
X0103394Y0221504D03*
X0087646Y0221504D03*
X0064024Y0211661D03*
X0064024Y0195913D03*
X0111268Y0136858D03*
X0111268Y0121110D03*
D39*
X0044339Y0052213D03*
X0034496Y0073866D03*
X0058118Y0101425D03*
X0060087Y0105362D03*
X0065992Y0099457D03*
X0069509Y0103394D03*
X0060087Y0119142D03*
X0054181Y0138827D03*
X0032528Y0134890D03*
X0030559Y0176228D03*
X0046970Y0179503D03*
X0051115Y0187168D03*
X0069929Y0221504D03*
X0056150Y0233315D03*
X0071898Y0256937D03*
X0081740Y0253000D03*
X0091583Y0253000D03*
X0089614Y0245126D03*
X0103394Y0243157D03*
X0105362Y0247094D03*
X0103394Y0256937D03*
X0111268Y0256937D03*
X0119142Y0253000D03*
X0120590Y0249063D03*
X0126995Y0241189D03*
X0134890Y0233513D03*
X0134890Y0219535D03*
X0140795Y0215598D03*
X0134890Y0213630D03*
X0140795Y0209693D03*
X0134890Y0205756D03*
X0127016Y0205756D03*
X0121110Y0205756D03*
X0127016Y0213630D03*
X0127016Y0219535D03*
X0150638Y0227409D03*
X0162449Y0237252D03*
X0156543Y0245126D03*
X0150638Y0247509D03*
X0142764Y0257528D03*
X0148669Y0270204D03*
X0156543Y0266780D03*
X0158091Y0272685D03*
X0166386Y0268748D03*
X0170323Y0266780D03*
X0162449Y0260874D03*
X0162449Y0251031D03*
X0172291Y0241189D03*
X0180165Y0233315D03*
X0193945Y0241189D03*
X0195913Y0256937D03*
X0180165Y0262843D03*
X0180165Y0272685D03*
X0176228Y0282528D03*
X0168354Y0280559D03*
X0171877Y0290402D03*
X0166386Y0293222D03*
X0174260Y0304181D03*
X0178197Y0307331D03*
X0182134Y0312055D03*
X0174260Y0323866D03*
X0159299Y0325835D03*
X0159299Y0319929D03*
X0153394Y0319929D03*
X0153394Y0325835D03*
X0147488Y0325835D03*
X0147488Y0319929D03*
X0142764Y0319929D03*
X0141583Y0325835D03*
X0141583Y0314024D03*
X0141583Y0308118D03*
X0127016Y0310087D03*
X0127016Y0317961D03*
X0121110Y0333709D03*
X0134890Y0341583D03*
X0140795Y0343551D03*
X0142764Y0351425D03*
X0148669Y0351425D03*
X0148669Y0357331D03*
X0142764Y0357331D03*
X0142764Y0363236D03*
X0148669Y0363236D03*
X0148669Y0369142D03*
X0142764Y0369142D03*
X0117173Y0365205D03*
X0081740Y0373079D03*
X0073866Y0361268D03*
X0069929Y0345520D03*
X0065992Y0330292D03*
X0069153Y0325059D03*
X0074387Y0323763D03*
X0073866Y0304181D03*
X0067961Y0302213D03*
X0060087Y0302213D03*
X0044339Y0317961D03*
X0044339Y0323866D03*
X0045531Y0328579D03*
X0044339Y0331957D03*
X0052213Y0330192D03*
X0056150Y0332261D03*
X0030559Y0327409D03*
X0046307Y0359299D03*
X0056150Y0373079D03*
X0026622Y0375047D03*
X0099457Y0302213D03*
X0091583Y0291976D03*
X0103394Y0286465D03*
X0107331Y0282528D03*
X0113236Y0282528D03*
X0111268Y0276622D03*
X0117173Y0276622D03*
X0119142Y0280559D03*
X0115205Y0292370D03*
X0115205Y0298276D03*
X0121110Y0300244D03*
X0140795Y0293965D03*
X0148669Y0294339D03*
X0159299Y0308118D03*
X0159299Y0314024D03*
X0165205Y0308118D03*
X0138827Y0280559D03*
X0105362Y0276622D03*
X0103394Y0270717D03*
X0077803Y0276622D03*
X0079772Y0284496D03*
X0071898Y0270717D03*
X0064024Y0266780D03*
X0062055Y0274654D03*
X0054181Y0278591D03*
X0054181Y0258906D03*
X0127016Y0184102D03*
X0148669Y0166386D03*
X0144732Y0158512D03*
X0134890Y0162449D03*
X0164417Y0193945D03*
X0184102Y0217567D03*
X0195913Y0190008D03*
X0191976Y0176228D03*
X0195913Y0160480D03*
X0172291Y0154575D03*
X0172291Y0130953D03*
X0195913Y0128984D03*
X0193945Y0095520D03*
X0180165Y0093551D03*
X0173846Y0089614D03*
X0170323Y0093551D03*
X0160480Y0105362D03*
X0138827Y0101425D03*
X0121110Y0079772D03*
X0125047Y0062055D03*
X0140795Y0065992D03*
X0158512Y0060087D03*
X0164417Y0077803D03*
X0190008Y0069929D03*
X0123079Y0127016D03*
X0107331Y0101425D03*
X0095520Y0083709D03*
X0101425Y0079772D03*
X0097488Y0077389D03*
X0091583Y0077803D03*
X0085677Y0077803D03*
X0081740Y0077803D03*
X0075835Y0077803D03*
X0071898Y0077803D03*
X0065992Y0077803D03*
X0097488Y0052213D03*
X0101425Y0056150D03*
X0101425Y0048276D03*
X0079772Y0134890D03*
X0099457Y0146701D03*
X0197882Y0278591D03*
X0186071Y0351425D03*
X0180165Y0351425D03*
X0180165Y0357331D03*
X0186071Y0357331D03*
X0186071Y0363236D03*
X0180165Y0363236D03*
X0180165Y0369142D03*
X0186071Y0369142D03*
X0193945Y0361268D03*
M02*
