G75*
%MOIN*%
%OFA0B0*%
%FSLAX25Y25*%
%IPPOS*%
%LPD*%
%AMOC8*
5,1,8,0,0,1.08239X$1,22.5*
%
%ADD10C,0.01200*%
%ADD11C,0.04800*%
%ADD12C,0.00400*%
D10*
X0069980Y0113102D02*
X0074980Y0113102D01*
X0069980Y0113102D02*
X0069980Y0118102D01*
X0069980Y0191102D02*
X0069980Y0196102D01*
X0074980Y0196102D01*
X0155980Y0196102D02*
X0160980Y0196102D01*
X0160980Y0191102D01*
X0160980Y0118102D02*
X0160980Y0113102D01*
X0155980Y0113102D01*
D11*
X0165480Y0109102D03*
D12*
X0060284Y0185095D02*
X0057215Y0185095D01*
X0055680Y0186629D01*
X0057215Y0188164D01*
X0060284Y0188164D01*
X0058750Y0189698D02*
X0060284Y0191233D01*
X0055680Y0191233D01*
X0055680Y0189698D02*
X0055680Y0192768D01*
X0051859Y0130701D02*
X0051092Y0130701D01*
X0050325Y0129933D01*
X0050325Y0128399D01*
X0051092Y0127631D01*
X0051859Y0127631D01*
X0052627Y0128399D01*
X0052627Y0129933D01*
X0051859Y0130701D01*
X0050325Y0129933D02*
X0049557Y0130701D01*
X0048790Y0130701D01*
X0048023Y0129933D01*
X0048023Y0128399D01*
X0048790Y0127631D01*
X0049557Y0127631D01*
X0050325Y0128399D01*
X0051859Y0126097D02*
X0052627Y0125330D01*
X0052627Y0123795D01*
X0051859Y0123028D01*
X0048790Y0123028D01*
X0048023Y0123795D01*
X0048023Y0125330D01*
X0048790Y0126097D01*
X0102767Y0255668D02*
X0101999Y0256435D01*
X0101999Y0257970D01*
X0102767Y0258737D01*
X0101999Y0260272D02*
X0105068Y0263341D01*
X0105836Y0263341D01*
X0106603Y0262574D01*
X0106603Y0261039D01*
X0105836Y0260272D01*
X0105836Y0258737D02*
X0106603Y0257970D01*
X0106603Y0256435D01*
X0105836Y0255668D01*
X0102767Y0255668D01*
X0101999Y0260272D02*
X0101999Y0263341D01*
X0102767Y0264876D02*
X0101999Y0265643D01*
X0101999Y0267178D01*
X0102767Y0267945D01*
X0103534Y0267945D01*
X0104301Y0267178D01*
X0104301Y0266410D01*
X0104301Y0267178D02*
X0105068Y0267945D01*
X0105836Y0267945D01*
X0106603Y0267178D01*
X0106603Y0265643D01*
X0105836Y0264876D01*
X0111842Y0263341D02*
X0111842Y0260272D01*
X0114911Y0263341D01*
X0115678Y0263341D01*
X0116446Y0262574D01*
X0116446Y0261039D01*
X0115678Y0260272D01*
X0115678Y0258737D02*
X0116446Y0257970D01*
X0116446Y0256435D01*
X0115678Y0255668D01*
X0112609Y0255668D01*
X0111842Y0256435D01*
X0111842Y0257970D01*
X0112609Y0258737D01*
X0114144Y0264876D02*
X0114144Y0267945D01*
X0116446Y0267178D02*
X0114144Y0264876D01*
X0111842Y0267178D02*
X0116446Y0267178D01*
X0098351Y0272747D02*
X0097584Y0271980D01*
X0096049Y0271980D01*
X0095282Y0272747D01*
X0093747Y0271980D02*
X0090678Y0275049D01*
X0090678Y0275816D01*
X0091445Y0276583D01*
X0092980Y0276583D01*
X0093747Y0275816D01*
X0095282Y0275816D02*
X0096049Y0276583D01*
X0097584Y0276583D01*
X0098351Y0275816D01*
X0098351Y0272747D01*
X0093747Y0271980D02*
X0090678Y0271980D01*
X0089143Y0271980D02*
X0086074Y0275049D01*
X0086074Y0275816D01*
X0086841Y0276583D01*
X0088376Y0276583D01*
X0089143Y0275816D01*
X0089143Y0271980D02*
X0086074Y0271980D01*
X0089143Y0281822D02*
X0089143Y0282589D01*
X0086074Y0285659D01*
X0086074Y0286426D01*
X0089143Y0286426D01*
X0092213Y0286426D02*
X0092213Y0281822D01*
X0093747Y0281822D02*
X0090678Y0281822D01*
X0093747Y0284891D02*
X0092213Y0286426D01*
X0095282Y0285659D02*
X0096049Y0286426D01*
X0097584Y0286426D01*
X0098351Y0285659D01*
X0098351Y0282589D01*
X0097584Y0281822D01*
X0096049Y0281822D01*
X0095282Y0282589D01*
X0096049Y0291665D02*
X0095282Y0292432D01*
X0096049Y0291665D02*
X0097584Y0291665D01*
X0098351Y0292432D01*
X0098351Y0295501D01*
X0097584Y0296268D01*
X0096049Y0296268D01*
X0095282Y0295501D01*
X0093747Y0295501D02*
X0092980Y0296268D01*
X0091445Y0296268D01*
X0090678Y0295501D01*
X0090678Y0294734D01*
X0093747Y0291665D01*
X0090678Y0291665D01*
X0089143Y0292432D02*
X0086074Y0295501D01*
X0086074Y0292432D01*
X0086841Y0291665D01*
X0088376Y0291665D01*
X0089143Y0292432D01*
X0089143Y0295501D01*
X0088376Y0296268D01*
X0086841Y0296268D01*
X0086074Y0295501D01*
M02*
