G75*
%MOIN*%
%OFA0B0*%
%FSLAX25Y25*%
%IPPOS*%
%LPD*%
%AMOC8*
5,1,8,0,0,1.08239X$1,22.5*
%
%ADD10R,0.05000X0.10500*%
%ADD11R,0.10500X0.05000*%
%ADD12R,0.04437X0.04831*%
%ADD13R,0.05618X0.06406*%
%ADD14C,0.03278*%
D10*
X0080480Y0114102D03*
X0090480Y0114102D03*
X0100480Y0114102D03*
X0110480Y0114102D03*
X0120480Y0114102D03*
X0130480Y0114102D03*
X0140480Y0114102D03*
X0150480Y0114102D03*
X0150480Y0195102D03*
X0140480Y0195102D03*
X0130480Y0195102D03*
X0120480Y0195102D03*
X0110480Y0195102D03*
X0100480Y0195102D03*
X0090480Y0195102D03*
X0080480Y0195102D03*
D11*
X0070980Y0184602D03*
X0070980Y0174602D03*
X0070980Y0164602D03*
X0070980Y0154602D03*
X0070980Y0144602D03*
X0070980Y0134602D03*
X0070980Y0124602D03*
X0159980Y0124602D03*
X0159980Y0134602D03*
X0159980Y0144602D03*
X0159980Y0154602D03*
X0159980Y0164602D03*
X0159980Y0174602D03*
X0159980Y0184602D03*
D12*
X0119142Y0263433D03*
X0119142Y0270126D03*
X0109299Y0270126D03*
X0109299Y0263433D03*
X0055323Y0132882D03*
X0055323Y0126189D03*
D13*
X0089811Y0266780D03*
X0097291Y0266780D03*
X0097291Y0276622D03*
X0089811Y0276622D03*
X0089811Y0286465D03*
X0097291Y0286465D03*
D14*
X0044339Y0052213D03*
X0034496Y0073866D03*
X0058118Y0101425D03*
X0060087Y0105362D03*
X0065992Y0099457D03*
X0069509Y0103394D03*
X0060087Y0119142D03*
X0054181Y0138827D03*
X0032528Y0134890D03*
X0030559Y0176228D03*
X0046970Y0179503D03*
X0051115Y0187168D03*
X0069929Y0221504D03*
X0056150Y0233315D03*
X0071898Y0256937D03*
X0081740Y0253000D03*
X0091583Y0253000D03*
X0089614Y0245126D03*
X0103394Y0243157D03*
X0105362Y0247094D03*
X0103394Y0256937D03*
X0111268Y0256937D03*
X0119142Y0253000D03*
X0120590Y0249063D03*
X0126995Y0241189D03*
X0134890Y0233513D03*
X0134890Y0219535D03*
X0140795Y0215598D03*
X0134890Y0213630D03*
X0140795Y0209693D03*
X0134890Y0205756D03*
X0127016Y0205756D03*
X0121110Y0205756D03*
X0127016Y0213630D03*
X0127016Y0219535D03*
X0150638Y0227409D03*
X0162449Y0237252D03*
X0156543Y0245126D03*
X0150638Y0247509D03*
X0142764Y0257528D03*
X0148669Y0270204D03*
X0156543Y0266780D03*
X0158091Y0272685D03*
X0166386Y0268748D03*
X0170323Y0266780D03*
X0162449Y0260874D03*
X0162449Y0251031D03*
X0172291Y0241189D03*
X0180165Y0233315D03*
X0193945Y0241189D03*
X0195913Y0256937D03*
X0180165Y0262843D03*
X0180165Y0272685D03*
X0176228Y0282528D03*
X0168354Y0280559D03*
X0171877Y0290402D03*
X0166386Y0293222D03*
X0174260Y0304181D03*
X0178197Y0307331D03*
X0182134Y0312055D03*
X0174260Y0323866D03*
X0159299Y0325835D03*
X0159299Y0319929D03*
X0153394Y0319929D03*
X0153394Y0325835D03*
X0147488Y0325835D03*
X0147488Y0319929D03*
X0142764Y0319929D03*
X0141583Y0325835D03*
X0141583Y0314024D03*
X0141583Y0308118D03*
X0127016Y0310087D03*
X0127016Y0317961D03*
X0121110Y0333709D03*
X0134890Y0341583D03*
X0140795Y0343551D03*
X0142764Y0351425D03*
X0148669Y0351425D03*
X0148669Y0357331D03*
X0142764Y0357331D03*
X0142764Y0363236D03*
X0148669Y0363236D03*
X0148669Y0369142D03*
X0142764Y0369142D03*
X0117173Y0365205D03*
X0081740Y0373079D03*
X0073866Y0361268D03*
X0069929Y0345520D03*
X0065992Y0330292D03*
X0069153Y0325059D03*
X0074387Y0323763D03*
X0073866Y0304181D03*
X0067961Y0302213D03*
X0060087Y0302213D03*
X0044339Y0317961D03*
X0044339Y0323866D03*
X0045531Y0328579D03*
X0044339Y0331957D03*
X0052213Y0330192D03*
X0056150Y0332261D03*
X0030559Y0327409D03*
X0046307Y0359299D03*
X0056150Y0373079D03*
X0026622Y0375047D03*
X0099457Y0302213D03*
X0091583Y0291976D03*
X0103394Y0286465D03*
X0107331Y0282528D03*
X0113236Y0282528D03*
X0111268Y0276622D03*
X0117173Y0276622D03*
X0119142Y0280559D03*
X0115205Y0292370D03*
X0115205Y0298276D03*
X0121110Y0300244D03*
X0140795Y0293965D03*
X0148669Y0294339D03*
X0159299Y0308118D03*
X0159299Y0314024D03*
X0165205Y0308118D03*
X0138827Y0280559D03*
X0105362Y0276622D03*
X0103394Y0270717D03*
X0077803Y0276622D03*
X0079772Y0284496D03*
X0071898Y0270717D03*
X0064024Y0266780D03*
X0062055Y0274654D03*
X0054181Y0278591D03*
X0054181Y0258906D03*
X0127016Y0184102D03*
X0148669Y0166386D03*
X0144732Y0158512D03*
X0134890Y0162449D03*
X0164417Y0193945D03*
X0184102Y0217567D03*
X0195913Y0190008D03*
X0191976Y0176228D03*
X0195913Y0160480D03*
X0172291Y0154575D03*
X0172291Y0130953D03*
X0195913Y0128984D03*
X0193945Y0095520D03*
X0180165Y0093551D03*
X0173846Y0089614D03*
X0170323Y0093551D03*
X0160480Y0105362D03*
X0138827Y0101425D03*
X0121110Y0079772D03*
X0125047Y0062055D03*
X0140795Y0065992D03*
X0158512Y0060087D03*
X0164417Y0077803D03*
X0190008Y0069929D03*
X0123079Y0127016D03*
X0107331Y0101425D03*
X0095520Y0083709D03*
X0101425Y0079772D03*
X0097488Y0077389D03*
X0091583Y0077803D03*
X0085677Y0077803D03*
X0081740Y0077803D03*
X0075835Y0077803D03*
X0071898Y0077803D03*
X0065992Y0077803D03*
X0097488Y0052213D03*
X0101425Y0056150D03*
X0101425Y0048276D03*
X0079772Y0134890D03*
X0099457Y0146701D03*
X0197882Y0278591D03*
X0186071Y0351425D03*
X0180165Y0351425D03*
X0180165Y0357331D03*
X0186071Y0357331D03*
X0186071Y0363236D03*
X0180165Y0363236D03*
X0180165Y0369142D03*
X0186071Y0369142D03*
X0193945Y0361268D03*
M02*
